<svg width="144" height="49" viewBox="0 0 144 49" fill="none" xmlns="http://www.w3.org/2000/svg">
<g clip-path="url(#clip0_25_36)">
<path fill-rule="evenodd" clip-rule="evenodd" d="M76.5487 3.26077C75.7501 3.81105 74.2127 6.5131 71.5271 12.0875L67.6565 20.121L67.9883 23.1037C68.3873 26.6937 68.592 26.7416 72.0678 24.0593C74.649 22.0673 74.7652 21.8868 78.7906 13.5878C83.3261 4.23759 83.3652 3.95347 80.2494 2.97805C78.1144 2.30967 77.9054 2.32589 76.5487 3.26077ZM76.7191 4.04195C75.832 4.84287 76.3162 5.31454 78.7304 6.00089C80.8786 6.6118 80.9699 6.61145 81.4165 5.98608C82.6155 4.3081 78.3704 2.5515 76.7191 4.04195ZM75.5619 6.30582C75.2748 6.65411 68.7059 20.0649 68.7059 20.3033C68.7059 21.5113 70.2635 19.6419 71.5981 16.832C72.5421 14.8452 74.0664 11.6768 74.9854 9.79152C76.3534 6.98547 76.6922 4.93558 75.5619 6.30582ZM77.4678 6.9823C76.1073 8.63138 70.728 20.8602 71.2941 21.0167C71.6678 21.1197 74.1501 16.3265 78.4814 7.13847C78.7087 6.65622 77.8466 6.52332 77.4678 6.9823ZM79.5294 7.15644C79.5294 7.21496 77.9671 10.4669 76.057 14.3831C73.3901 19.8517 71.6475 25.6418 74.0998 20.8867C78.5774 12.2034 80.7751 7.05034 80 7.05034C79.7412 7.05034 79.5294 7.09828 79.5294 7.15644ZM60.8984 8.41599C60.6631 8.54995 59.2066 9.64593 57.6612 10.8515L54.8518 13.0438L57.8828 15.3349C59.5501 16.5951 61.1723 17.6259 61.488 17.6259C62.9473 17.6259 62.4974 16.6977 60.1901 14.9474L57.6791 13.0431L60.1337 11.1815C61.4838 10.1574 62.5882 9.14324 62.5882 8.92785C62.5882 8.43326 61.4664 8.09379 60.8984 8.41599ZM86.2734 8.66452C86.0833 9.03572 86.8292 9.8592 88.5073 11.1321L91.0268 13.0431L88.5723 14.9048C87.2221 15.9289 86.1177 16.96 86.1177 17.1962C86.1177 18.2121 88.0033 17.4662 90.8231 15.3349L93.8541 13.0438L91.0447 10.8515C87.1228 7.79098 86.7977 7.64186 86.2734 8.66452ZM68.7332 21.7443C68.7478 22.0965 68.9068 22.988 69.0861 23.7255L69.4118 25.0661L71.2546 23.6508L73.097 22.2354L71.9605 21.9167C69.0452 21.0989 68.705 21.0806 68.7332 21.7443ZM27.3285 31.2454C22.7478 35.6075 28.4687 46.005 33.4118 42.3021C36.673 39.8592 34.2377 30.3165 30.353 30.3165C28.6993 30.3165 28.1153 30.496 27.3285 31.2454ZM38.9242 30.5347C38.7393 30.6733 38.5883 33.5361 38.5883 36.897V43.0072H39.7647H40.9412L40.9817 38.8651C41.0264 34.2883 41.4057 34.5492 42.4061 39.8454C42.9939 42.9553 43.025 43.0072 44.304 43.0072C45.7388 43.0072 45.5492 43.414 46.7713 37.7194L47.4146 34.723L47.472 38.8651L47.5294 43.0072H48.7059H49.8824V36.6618V30.3165H48.0833H46.2838L45.425 34.6349C44.4607 39.4831 44.4372 39.4785 43.3572 34.2594L42.5779 30.4928L40.9191 30.3877C40.0071 30.3303 39.1092 30.3962 38.9242 30.5347ZM53.9261 31.1097C56.1365 36.2283 56.9412 38.808 56.9412 40.7733V43.0072H58.353C59.7605 43.0072 59.7647 43.0008 59.7647 40.9492C59.7647 39.6308 60.3567 37.3842 61.4118 34.698C62.3177 32.3918 63.0588 30.4519 63.0588 30.3874C63.0588 28.7097 60.3981 30.92 59.537 33.3129C58.6141 35.8768 58.4899 36.0368 58.1722 35.0755C56.729 30.7096 56.4664 30.3165 54.9939 30.3165C53.7435 30.3165 53.6226 30.4064 53.9261 31.1097ZM67.3125 31.0882C65.8687 32.2487 65.8541 41.2234 67.2941 42.3021C69.8108 44.1874 73.8052 42.8771 74.2344 40.0252C74.4748 38.4283 74.4715 38.4244 73.0024 38.4244C71.5977 38.4244 71.5294 38.4897 71.5294 39.8345C71.5294 41.5033 69.5515 41.9863 69.0024 40.4514C68.6315 39.414 68.6362 33.8967 69.009 32.8539C69.4744 31.5525 71.2551 31.9529 71.4414 33.4011C71.6151 34.7501 74.353 35.2137 74.353 33.8942C74.353 30.7974 69.8875 29.0175 67.3125 31.0882ZM79.464 30.9905C77.9087 31.9335 77.736 41.0126 79.2494 42.2651C82.3299 44.8152 86.1544 42.7851 86.4918 38.4202C87.0334 31.4062 84.024 28.2243 79.464 30.9905ZM90.8235 36.621V43.0072H93.6683C101.407 43.0072 101.676 30.7519 93.9454 30.3832L90.8235 30.2344V36.621ZM103.059 36.6618V43.0072H106.824C110.526 43.0072 110.588 42.9924 110.588 42.1259C110.588 41.3035 110.432 41.2446 108.235 41.2446H105.882V39.5031V37.7621L107.647 37.6524C110.465 37.4779 110.601 35.6043 107.796 35.6043H105.882V33.8417V32.0791H108.235C110.432 32.0791 110.588 32.0202 110.588 31.1978C110.588 30.3313 110.526 30.3165 106.824 30.3165H103.059V36.6618ZM115.639 30.9334C113.561 32.6608 114.039 34.5954 117.187 37.1994C119.917 39.457 120.448 41.2446 118.39 41.2446C117.507 41.2446 117.182 41.007 116.941 40.187C116.52 38.7495 114.353 38.6215 114.353 40.034C114.353 42.0385 115.647 42.9962 118.353 42.9962C123.452 42.9962 123.852 39.6226 119.198 35.8595C117.611 34.5764 117.152 33.9478 117.264 33.2156C117.47 31.8747 119.291 31.6712 119.716 32.9414C120.136 34.1925 122.353 34.2485 122.353 33.008C122.353 30.7392 117.629 29.2794 115.639 30.9334ZM29.4904 32.3142C29.3177 32.4433 29.1765 34.5055 29.1765 36.897V41.2446H30.3026C31.7963 41.2446 32.001 40.7172 31.9934 36.8973C31.985 32.5169 31.1817 31.0469 29.4904 32.3142ZM81.1454 32.5413C81.0151 32.7954 80.969 34.8182 81.0424 37.0359L81.1765 41.0683H82.353C83.553 41.0683 84.376 35.3861 83.5402 32.8723C83.2494 31.9991 81.544 31.7633 81.1454 32.5413ZM93.5101 32.2991C93.3266 32.4366 93.1765 34.5161 93.1765 36.9202V41.2915L94.4706 41.1797L95.7647 41.0683V36.6618C95.7647 32.2268 95.1624 31.0614 93.5101 32.2991Z" fill="white"/>
<path fill-rule="evenodd" clip-rule="evenodd" d="M0 24.5011V49.0021L72.1176 48.9129L144.235 48.8237L144.356 24.4119L144.477 0H72.2386H0V24.5011ZM0.222588 24.6763C0.222588 38.1513 0.281412 43.6636 0.352941 36.9263C0.424471 30.1886 0.424471 19.1636 0.352941 12.4263C0.281412 5.68858 0.222588 11.2013 0.222588 24.6763ZM76.5487 3.26079C75.7501 3.81107 74.2127 6.51312 71.5271 12.0875L67.6565 20.121L67.9882 23.1037C68.3873 26.6937 68.592 26.7417 72.0678 24.0594C74.6489 22.0673 74.7652 21.8868 78.7906 13.5878C83.3261 4.23762 83.3652 3.95349 80.2494 2.97807C78.1143 2.3097 77.9054 2.32591 76.5487 3.26079ZM76.7191 4.04197C75.832 4.84289 76.3162 5.31456 78.7303 6.00091C80.8786 6.61183 80.9699 6.61148 81.4165 5.98611C82.6155 4.30812 78.3703 2.55153 76.7191 4.04197ZM75.5619 6.30584C75.2748 6.65413 68.7059 20.065 68.7059 20.3033C68.7059 21.5114 70.2635 19.642 71.5981 16.832C72.5421 14.8452 74.0663 11.6768 74.9854 9.79154C76.3534 6.9855 76.6922 4.9356 75.5619 6.30584ZM77.4678 6.98232C76.1073 8.6314 70.728 20.8603 71.2941 21.0168C71.6678 21.1197 74.1501 16.3265 78.4814 7.13849C78.7087 6.65625 77.8466 6.52335 77.4678 6.98232ZM79.5294 7.15647C79.5294 7.21499 77.9671 10.467 76.0569 14.3831C73.3901 19.8517 71.6475 25.6418 74.0998 20.8867C78.5774 12.2035 80.7751 7.05036 80 7.05036C79.7412 7.05036 79.5294 7.0983 79.5294 7.15647ZM60.8983 8.41602C60.6631 8.54997 59.2066 9.64595 57.6612 10.8516L54.8518 13.0439L57.8828 15.3349C59.5501 16.5951 61.1722 17.6259 61.488 17.6259C62.9473 17.6259 62.4974 16.6977 60.1901 14.9475L57.6791 13.0432L60.1336 11.1815C61.4838 10.1575 62.5882 9.14326 62.5882 8.92787C62.5882 8.43329 61.4663 8.09381 60.8983 8.41602ZM86.2734 8.66454C86.0833 9.03574 86.8292 9.85922 88.5073 11.1322L91.0268 13.0432L88.5722 14.9048C87.2221 15.9289 86.1176 16.96 86.1176 17.1962C86.1176 18.2121 88.0033 17.4662 90.8231 15.3349L93.8541 13.0439L91.0447 10.8516C87.1228 7.791 86.7976 7.64189 86.2734 8.66454ZM68.7332 21.7444C68.7478 22.0965 68.9068 22.9881 69.0861 23.7255L69.4118 25.0661L71.2546 23.6508L73.0969 22.2354L71.9605 21.9168C69.0452 21.0989 68.7049 21.0806 68.7332 21.7444ZM27.3285 31.2454C22.7478 35.6075 28.4687 46.005 33.4118 42.3022C36.6729 39.8592 34.2376 30.3165 30.3529 30.3165C28.6993 30.3165 28.1153 30.496 27.3285 31.2454ZM38.9242 30.5348C38.7393 30.6733 38.5882 33.5361 38.5882 36.897V43.0072H39.7647H40.9412L40.9816 38.8651C41.0263 34.2884 41.4056 34.5492 42.4061 39.8455C42.9939 42.9554 43.0249 43.0072 44.304 43.0072C45.7388 43.0072 45.5492 43.414 46.7713 37.7194L47.4146 34.723L47.472 38.8651L47.5294 43.0072H48.7059H49.8823V36.6619V30.3165H48.0833H46.2838L45.4249 34.6349C44.4607 39.4831 44.4372 39.4785 43.3572 34.2595L42.5779 30.4928L40.9191 30.3878C40.0071 30.3303 39.1092 30.3962 38.9242 30.5348ZM53.9261 31.1097C56.1365 36.2283 56.9412 38.808 56.9412 40.7733V43.0072H58.3529C59.7605 43.0072 59.7647 43.0009 59.7647 40.9492C59.7647 39.6308 60.3567 37.3842 61.4118 34.698C62.3176 32.3918 63.0588 30.4519 63.0588 30.3874C63.0588 28.7098 60.3981 30.9201 59.5369 33.313C58.6141 35.8768 58.4899 36.0369 58.1722 35.0755C56.7289 30.7096 56.4663 30.3165 54.9939 30.3165C53.7435 30.3165 53.6226 30.4064 53.9261 31.1097ZM67.3125 31.0882C65.8687 32.2487 65.8541 41.2235 67.2941 42.3022C69.8108 44.1874 73.8052 42.8771 74.2343 40.0252C74.4748 38.4283 74.4715 38.4245 73.0024 38.4245C71.5976 38.4245 71.5294 38.4897 71.5294 39.8345C71.5294 41.5034 69.5515 41.9863 69.0024 40.4514C68.6315 39.414 68.6362 33.8967 69.0089 32.854C69.4743 31.5525 71.2551 31.9529 71.4414 33.4011C71.6151 34.7502 74.3529 35.2137 74.3529 33.8943C74.3529 30.7974 69.8875 29.0175 67.3125 31.0882ZM79.464 30.9906C77.9087 31.9336 77.736 41.0127 79.2494 42.2651C82.3299 44.8153 86.1543 42.7851 86.4918 38.4202C87.0334 31.4062 84.024 28.2244 79.464 30.9906ZM90.8235 36.621V43.0072H93.6682C101.407 43.0072 101.676 30.7519 93.9454 30.3832L90.8235 30.2344V36.621ZM103.059 36.6619V43.0072H106.824C110.526 43.0072 110.588 42.9924 110.588 42.1259C110.588 41.3035 110.432 41.2446 108.235 41.2446H105.882V39.5032V37.7621L107.647 37.6524C110.465 37.478 110.601 35.6043 107.796 35.6043H105.882V33.8417V32.0791H108.235C110.432 32.0791 110.588 32.0203 110.588 31.1978C110.588 30.3314 110.526 30.3165 106.824 30.3165H103.059V36.6619ZM115.639 30.9335C113.561 32.6608 114.039 34.5954 117.187 37.1995C119.917 39.457 120.448 41.2446 118.39 41.2446C117.507 41.2446 117.182 41.007 116.941 40.1871C116.52 38.7495 114.353 38.6215 114.353 40.0341C114.353 42.0385 115.647 42.9963 118.353 42.9963C123.452 42.9963 123.852 39.6227 119.198 35.8595C117.611 34.5764 117.152 33.9478 117.264 33.2157C117.47 31.8747 119.291 31.6713 119.716 32.9414C120.136 34.1925 122.353 34.2485 122.353 33.008C122.353 30.7392 117.629 29.2794 115.639 30.9335ZM29.4904 32.3143C29.3176 32.4433 29.1765 34.5055 29.1765 36.897V41.2446H30.3026C31.7962 41.2446 32.0009 40.7172 31.9934 36.8974C31.9849 32.517 31.1816 31.047 29.4904 32.3143ZM81.1454 32.5413C81.0151 32.7955 80.9689 34.8182 81.0423 37.0359L81.1765 41.0683H82.3529C83.5529 41.0683 84.376 35.3861 83.5402 32.8723C83.2494 31.9991 81.544 31.7633 81.1454 32.5413ZM93.5101 32.2991C93.3266 32.4366 93.1765 34.5161 93.1765 36.9203V41.2915L94.4706 41.1797L95.7647 41.0683V36.6619C95.7647 32.2268 95.1623 31.0614 93.5101 32.2991Z" fill="#0D0B1C"/>
</g>
<defs>
<clipPath id="clip0_25_36">
<rect width="144" height="49" fill="white"/>
</clipPath>
</defs>
</svg>
